HIERARCHY
ROOT Hips
{
	OFFSET 0.00 0.00 0.00
	CHANNELS 6 Xposition Yposition Zposition Xrotation Yrotation Zrotation
	JOINT Spine
	{
		OFFSET 0.00000 7.06766 0.00000
		CHANNELS 3 Xrotation Yrotation Zrotation
		JOINT Head
		{
			OFFSET 0.00000 15.03989 0.00000
			CHANNELS 3 Xrotation Yrotation Zrotation
			End Site
			{
				OFFSET 0.00000 4.52755 0.00000
			}
		}
		JOINT LeftShoulder
		{
			OFFSET 0.00000 10.53037 0.00000
			CHANNELS 3 Xrotation Yrotation Zrotation
			JOINT LeftArm
			{
				OFFSET 7.02886 0.00000 0.00000
				CHANNELS 3 Xrotation Yrotation Zrotation
				JOINT LeftForeArm
				{
					OFFSET 10.79770 0.00000 0.00000
					CHANNELS 3 Yrotation Zrotation Xrotation
					JOINT LeftHand
					{
						OFFSET 7.90744 0.00000 0.00000
						CHANNELS 3 Xrotation Yrotation Zrotation
						JOINT LeftHandThumb1
						{
							OFFSET 0.00000 0.00000 0.00000
							CHANNELS 3 Xrotation Zrotation Yrotation
							End Site
							{
								OFFSET 0.00000 0.00000 3.93700
							}
						}
						End Site
						{
							OFFSET 3.93700 0.00000 0.00000
						}
					}
				}
			}
		}
		JOINT RightShoulder
		{
			OFFSET 0.00000 10.53037 0.00000
			CHANNELS 3 Xrotation Yrotation Zrotation
			JOINT RightArm
			{
				OFFSET -7.02886 0.00000 0.00000
				CHANNELS 3 Xrotation Yrotation Zrotation
				JOINT RightForeArm
				{
					OFFSET -10.79770 0.00000 0.00000
					CHANNELS 3 Yrotation Zrotation Xrotation
					JOINT RightHand
					{
						OFFSET -7.90744 0.00000 0.00000
						CHANNELS 3 Xrotation Yrotation Zrotation
						JOINT RightHandThumb1
						{
							OFFSET 0.00000 0.00000 0.00000
							CHANNELS 3 Xrotation Zrotation Yrotation
							End Site
							{
								OFFSET 0.00000 0.00000 3.93700
							}
						}
						End Site
						{
							OFFSET -3.93700 0.00000 0.00000
						}
					}
				}
			}
		}
	}
	JOINT LeftUpLeg
	{
		OFFSET 4.01300 0.00000 0.00000
		CHANNELS 3 Xrotation Yrotation Zrotation
		JOINT LeftLeg
		{
			OFFSET 0.00000 -16.89976 0.00000
			CHANNELS 3 Xrotation Yrotation Zrotation
			JOINT LeftFoot
			{
				OFFSET 0.00000 -17.38918 0.00000
				CHANNELS 3 Xrotation Yrotation Zrotation
				JOINT LeftToeBase
				{
					OFFSET 0.00000 -1.27456 4.75673
					CHANNELS 3 Xrotation Yrotation Zrotation
					End Site
					{
						OFFSET 0.00000 0.00000 2.95275
					}
				}
			}
		}
	}
	JOINT RightUpLeg
	{
		OFFSET -4.01300 0.00000 0.00000
		CHANNELS 3 Xrotation Yrotation Zrotation
		JOINT RightLeg
		{
			OFFSET 0.00000 -16.89976 0.00000
			CHANNELS 3 Xrotation Yrotation Zrotation
			JOINT RightFoot
			{
				OFFSET 0.00000 -17.38918 0.00000
				CHANNELS 3 Xrotation Yrotation Zrotation
				JOINT RightToeBase
				{
					OFFSET 0.00000 -1.27456 4.75673
					CHANNELS 3 Xrotation Yrotation Zrotation
					End Site
					{
						OFFSET 0.00000 0.00000 2.95275
					}
				}
			}
		}
	}
}
MOTION
Frames: 13
Frame Time: 0.008333
 18.5492 35.4607 -20.7480 9.9714 3.8792 -1.2128 -26.6220 -7.3566 2.4579 35.4724 -2.2190 -10.0139 -57.6234 -18.1169 32.2540 -67.5411 -42.1796 -40.9169 -151.7879 -0.0000 -21.4115 0.4957 -3.7506 7.5347 33.1476 -0.0000 26.2537 41.0890 -5.1434 -4.0804 31.3501 59.0324 60.6423 131.9606 0.0000 13.2927 -4.2982 4.1654 45.9777 32.8623 0.0000 -24.3270 1.2443 3.7532 1.2147 -6.7892 -0.0000 -0.0000 -19.0067 31.8423 3.2171 23.3402 0.0000 -0.0000 1.1988 -9.8492 -1.0169 -3.9285 -0.0000 0.0000 -18.2331 -30.8320 3.8339 22.3225 -0.0000 -0.0000
 18.5466 35.4620 -20.7551 10.0512 3.7934 -1.2161 -26.7300 -7.2786 2.4830 35.4472 -2.3151 -9.9059 -57.5844 -18.1475 32.2451 -67.4854 -42.2967 -40.8837 -151.7840 -0.0000 -21.3998 0.5024 -3.7650 7.6060 33.1476 -0.0000 26.2537 40.8876 -5.0861 -3.9787 31.0300 59.0372 60.8410 131.7454 0.0000 12.8463 -4.2922 4.1394 46.1168 32.8623 0.0000 -24.3270 1.1622 3.7790 1.2209 -6.7844 -0.0000 -0.0000 -19.0137 31.8686 3.2408 23.3617 0.0000 -0.0000 1.1015 -9.8087 -1.0128 -3.9447 -0.0000 -0.0000 -18.1980 -30.8109 3.8742 22.2839 -0.0000 -0.0000
 18.5421 35.4626 -20.7620 10.1379 3.7070 -1.2256 -26.8505 -7.2004 2.5117 35.4329 -2.3869 -9.7968 -57.5267 -18.1521 32.2252 -67.4743 -42.4357 -40.8508 -151.7394 -0.0000 -21.4934 0.5181 -3.8680 7.6355 33.1476 -0.0000 26.2537 40.6518 -5.0102 -3.8584 30.7469 58.9581 61.0302 131.6678 0.0000 12.3112 -4.3441 4.1627 46.3018 32.8623 0.0000 -24.3270 1.0700 3.8007 1.2355 -6.7772 -0.0000 0.0000 -19.0327 31.9003 3.2781 23.3227 -0.0000 0.0000 1.0023 -9.7613 -0.9980 -3.9658 -0.0000 -0.0000 -18.1615 -30.7811 3.8703 22.2973 0.0000 0.0000
 18.5382 35.4638 -20.7676 10.2197 3.6142 -1.2258 -26.9738 -7.1106 2.5399 35.4262 -2.4383 -9.7033 -57.4833 -18.1597 32.1942 -67.3676 -42.6263 -40.7523 -151.7350 -0.0000 -21.4552 0.5338 -3.9286 7.7443 33.1476 -0.0000 26.2537 40.4592 -4.9220 -3.7577 30.5743 59.0974 61.1069 131.5643 0.0000 12.1942 -4.3233 4.1452 46.2846 32.8623 0.0000 -24.3270 0.9864 3.8475 1.2408 -6.7739 -0.0000 0.0000 -19.0378 31.9176 3.2873 23.3850 0.0000 -0.0000 0.9050 -9.7162 -0.9922 -3.9844 -0.0000 0.0000 -18.1434 -30.7598 3.8723 22.3168 -0.0000 0.0000
 18.5335 35.4647 -20.7733 10.3018 3.5303 -1.2352 -27.1013 -7.0265 2.5785 35.4058 -2.5255 -9.6120 -57.4304 -18.1488 32.1277 -67.2918 -42.8418 -40.6466 -151.7325 -0.0000 -21.4111 0.5381 -3.9143 7.8330 33.1476 -0.0000 26.2537 40.2305 -4.7765 -3.6606 30.4046 59.2330 61.2822 131.5571 0.0000 12.1971 -4.3164 4.1464 46.2295 32.8623 0.0000 -24.3270 0.9020 3.8708 1.2604 -6.7689 -0.0000 0.0000 -19.0409 31.9347 3.3112 23.3841 0.0000 0.0000 0.8108 -9.6937 -0.9758 -4.0051 -0.0000 -0.0000 -18.1061 -30.7158 3.8852 22.3613 -0.0000 -0.0000
 18.5286 35.4652 -20.7792 10.3881 3.4311 -1.2394 -27.2303 -6.9626 2.6170 35.3684 -2.6116 -9.5364 -57.3900 -18.1184 32.1324 -67.1847 -43.0172 -40.5551 -151.7428 -0.0000 -21.4163 0.5193 -3.8539 7.6799 33.1476 -0.0000 26.2537 40.0883 -4.6163 -3.5522 30.3090 59.3494 61.3164 131.6251 0.0000 12.0644 -4.2422 4.0770 46.2140 32.8623 0.0000 -24.3270 0.8120 3.9266 1.2713 -6.7618 -0.0000 -0.0000 -19.0613 31.9530 3.3466 23.4372 -0.0000 0.0000 0.7103 -9.6482 -0.9657 -4.0242 0.0000 0.0000 -18.0878 -30.6791 3.8706 22.3399 -0.0000 0.0000
 18.5240 35.4654 -20.7853 10.4713 3.3305 -1.2404 -27.3546 -6.9113 2.6382 35.3426 -2.6916 -9.4376 -57.2464 -18.0528 32.1389 -67.2043 -43.2496 -40.4050 -151.7322 -0.0000 -21.4903 0.5154 -3.8189 7.6927 33.1476 -0.0000 26.2537 39.9678 -4.4379 -3.4592 30.1842 59.5051 61.3174 131.6714 0.0000 11.9044 -4.1986 4.0497 46.1094 32.8623 0.0000 -24.3270 0.7275 3.9871 1.2787 -6.7558 -0.0000 -0.0000 -19.0680 31.9567 3.3507 23.4183 -0.0000 -0.0000 0.6076 -9.6226 -0.9598 -4.0368 -0.0000 0.0000 -18.0679 -30.6118 3.8950 22.3808 -0.0000 0.0000
 18.5186 35.4653 -20.7909 10.5729 3.2253 -1.2418 -27.5023 -6.8671 2.6531 35.3045 -2.7421 -9.3158 -57.1981 -18.0475 32.1727 -67.1061 -43.4243 -40.2767 -151.7303 -0.0000 -21.5096 0.5187 -3.8392 7.7009 33.1476 -0.0000 26.2537 39.8154 -4.2275 -3.3793 30.1193 59.5415 61.3554 131.7239 0.0000 11.8805 -4.1745 4.0270 46.1046 32.8623 0.0000 -24.3270 0.6341 4.0420 1.2866 -6.7657 0.0000 0.0000 -19.0714 31.9778 3.3708 23.4336 -0.0000 0.0000 0.4924 -9.5905 -0.9524 -4.0611 0.0000 -0.0000 -18.0341 -30.5513 3.9069 22.3828 -0.0000 -0.0000
 18.5132 35.4648 -20.7953 10.6647 3.1196 -1.2489 -27.6442 -6.8112 2.6843 35.2712 -2.8442 -9.1808 -57.1560 -18.0544 32.1759 -67.0182 -43.5677 -40.1255 -151.7540 -0.0000 -21.5944 0.5292 -3.9069 7.7208 33.1476 -0.0000 26.2537 39.6634 -4.0579 -3.3177 30.0663 59.6020 61.4019 131.7293 0.0000 11.8587 -4.1631 4.0162 46.1028 32.8623 0.0000 -24.3270 0.5555 4.1139 1.2987 -6.7842 -0.0000 0.0000 -19.0832 31.9913 3.3987 23.4345 -0.0000 0.0000 0.3893 -9.5597 -0.9399 -4.0798 0.0000 0.0000 -18.0066 -30.4833 3.9364 22.4464 -0.0000 0.0000
 18.5079 35.4642 -20.7989 10.7594 3.0135 -1.2570 -27.7908 -6.7480 2.7105 35.2348 -2.9566 -9.0171 -57.1387 -18.0772 32.2336 -66.9071 -43.6575 -40.0242 -151.8226 -0.0000 -21.5332 0.5373 -3.9270 7.7974 33.1476 -0.0000 26.2537 39.5466 -3.9342 -3.2692 30.0318 59.6844 61.3685 131.6652 0.0000 11.7098 -4.1701 4.0260 46.0820 32.8623 0.0000 -24.3270 0.4752 4.1897 1.3106 -6.8026 -0.0000 0.0000 -19.0978 31.9956 3.4299 23.4503 0.0000 0.0000 0.2795 -9.5089 -0.9288 -4.0897 -0.0000 -0.0000 -17.9880 -30.4257 3.9552 22.3987 0.0000 -0.0000
 18.5038 35.4628 -20.8011 10.8554 2.9086 -1.2666 -27.9507 -6.6850 2.7226 35.2123 -3.0536 -8.7867 -57.0230 -18.0801 32.2861 -66.9091 -43.7788 -39.9081 -151.9178 -0.0000 -21.5022 0.5441 -3.8886 7.9711 33.1476 -0.0000 26.2537 39.4914 -3.8192 -3.2342 29.9758 59.7067 61.3132 131.5743 0.0000 11.5435 -4.1659 4.0228 46.0748 32.8623 0.0000 -24.3270 0.4036 4.2469 1.3212 -6.8366 -0.0000 -0.0000 -19.1125 32.0368 3.4748 23.4278 -0.0000 0.0000 0.1733 -9.4506 -0.9210 -4.1015 -0.0000 -0.0000 -17.9765 -30.3566 3.9565 22.4092 -0.0000 -0.0000
 18.4995 35.4619 -20.8030 10.9406 2.8173 -1.2753 -28.0941 -6.6203 2.7312 35.1920 -3.2038 -8.5497 -56.9893 -18.1135 32.3345 -66.9400 -43.7899 -39.8927 -151.9675 -0.0000 -21.4020 0.5710 -4.0949 7.9445 33.1476 -0.0000 26.2537 39.4450 -3.7416 -3.2038 29.8577 59.6142 61.2407 131.5893 0.0000 11.3060 -4.3071 4.1354 46.2436 32.8623 0.0000 -24.3270 0.3366 4.3218 1.3314 -6.8603 0.0000 0.0000 -19.1328 32.0414 3.5053 23.4695 0.0000 0.0000 0.0819 -9.4113 -0.9118 -4.1163 -0.0000 -0.0000 -17.9439 -30.3021 4.0210 22.3746 0.0000 -0.0000
 18.4944 35.4608 -20.8045 11.0148 2.7397 -1.3023 -28.2195 -6.5889 2.7725 35.1551 -3.3730 -8.3581 -57.0562 -18.1846 32.3126 -66.8958 -43.8086 -39.8517 -152.0438 -0.0000 -21.3937 0.5688 -4.0922 7.9206 33.1476 -0.0000 26.2537 39.4200 -3.6474 -3.2069 29.7175 59.7432 61.3327 131.5064 0.0000 11.4915 -4.2239 4.0679 46.1537 32.8623 0.0000 -24.3270 0.2752 4.3669 1.3602 -6.8799 0.0000 -0.0000 -19.1750 32.0682 3.5640 23.4896 0.0000 0.0000 0.0048 -9.3826 -0.8839 -4.1274 0.0000 -0.0000 -17.9183 -30.2435 4.0555 22.3910 -0.0000 0.0000
